<svg width="940" height="940" viewBox="0 0 940 940" fill="none" xmlns="http://www.w3.org/2000/svg">
<path d="M470 940C729.574 940 940 729.574 940 470C940 210.426 729.574 0 470 0C210.426 0 0 210.426 0 470C0 729.574 210.426 940 470 940Z" fill="url(#paint0_linear)"/>
<path d="M470 893C703.616 893 893 703.616 893 470C893 236.384 703.616 47 470 47C236.384 47 47 236.384 47 470C47 703.616 236.384 893 470 893Z" fill="url(#paint1_linear)"/>
<path d="M737.866 340.647C737.936 411.457 717.956 480.84 680.237 540.768C642.518 600.696 588.602 648.72 524.727 679.283C507.077 687.809 488.775 694.912 469.995 700.526C481.999 693.566 493.102 685.156 503.052 675.485C533.846 645.451 551.853 604.686 553.316 561.696C554.778 518.706 539.584 476.811 510.902 444.754C565.106 435.728 614.838 409.131 652.439 369.06C690.04 328.989 713.423 277.668 718.987 223C731.528 260.955 737.901 300.674 737.866 340.647Z" fill="white"/>
<path d="M469.995 700.526C451.215 694.913 432.913 687.809 415.263 679.283C332.998 639.791 267.916 571.712 232.166 487.753C196.416 403.794 192.441 309.694 220.984 223.02C226.547 277.688 249.931 329.009 287.532 369.08C325.133 409.151 374.865 435.748 429.069 444.774C400.387 476.831 385.193 518.726 386.655 561.716C388.118 604.706 406.125 645.471 436.919 675.505C446.876 685.171 457.985 693.574 469.995 700.526V700.526Z" fill="white"/>
<defs>
<linearGradient id="paint0_linear" x1="470" y1="0" x2="470" y2="940" gradientUnits="userSpaceOnUse">
<stop stop-color="#464646"/>
<stop offset="1" stop-color="#111111"/>
</linearGradient>
<linearGradient id="paint1_linear" x1="470" y1="893" x2="470" y2="47" gradientUnits="userSpaceOnUse">
<stop stop-color="#010101"/>
<stop offset="1" stop-color="#3C3C3C"/>
</linearGradient>
</defs>
</svg>
